# xmcd
#
# Track frame offsets:
#	150
#	12340
#	24535
#	37770
#	50837
#	75957
#	89105
#	104805
#	120210
#	133997
#
# Disc length: 2022 seconds
#
# Revision: 0
# Processed by: cddbd v1.5.2PL0 Copyright (c) Steve Scherf et al.
# Submitted via: EasyCDDAExtractor 10.2.0.1
#
DISCID=7e07e40a
DTITLE=Southern Grace Quartet - Homecoming Day
DYEAR=2000
DGENRE=Gospel
TTITLE0=Homecoming Day
TTITLE1=My Grace Is Sufficient
TTITLE2=Angels In The Band
TTITLE3=Ring Out The Welcome
TTITLE4=Just A Little Talk With Jesus
TTITLE5=Step Into The River
TTITLE6=Careless Thinking Clouded Minds
TTITLE7=God Came My Way
TTITLE8=Lighthouse
TTITLE9=I Found It All On The Cross
EXTD=
EXTT0=
EXTT1=
EXTT2=
EXTT3=
EXTT4=
EXTT5=
EXTT6=
EXTT7=
EXTT8=
EXTT9=
PLAYORDER=
